<?xml version="1.0" encoding="iso-8859-1"?>
<!-- Generator: Adobe Illustrator 19.1.0, SVG Export Plug-In . SVG Version: 6.00 Build 0)  -->
<svg version="1.1" xmlns="http://www.w3.org/2000/svg" xmlns:xlink="http://www.w3.org/1999/xlink" x="0px" y="0px" viewBox="0 0 1000 1000" enable-background="new 0 0 1000 1000" xml:space="preserve">
<g><g transform="translate(0.000000,511.000000) scale(0.100000,-0.100000)"><path d="M643.7,4274.9c-231-11.3-301.4-25.4-366.2-73.3c-149.3-109.9-177.5-208.5-177.5-648c0-366.3,5.6-405.7,64.8-490.2c33.8-50.7,98.6-121.1,140.9-152.1l78.9-59.2h4617.6h4617.6l76,59.2c183.1,135.2,194.4,169,194.4,659.2c0,495.8-16.9,546.6-205.7,656.4c-87.4,50.7-270.5,53.5-4420.4,56.3C2880.7,4286.1,801.5,4283.3,643.7,4274.9z"/><path d="M401.5,795.5C257.8,744.8,162,651.8,125.4,530.7c-16.9-59.2-25.4-264.8-19.7-487.4c8.4-428.2,31-487.4,222.6-600.1c95.8-56.3,146.5-56.3,4673.9-56.3s4578.1,0,4673.9,56.3c200,118.3,214.1,163.4,214.1,662.1c0,512.8-14.1,555-239.5,670.5l-124,62H5016.2C1272,834.9,488.8,829.3,401.5,795.5z"/><path d="M398.6-2655.7c-45.1-14.1-112.7-53.5-149.3-90.2c-132.4-124-149.3-191.6-149.3-605.7c0-442.3,28.2-538.1,194.4-648l95.8-64.8h4611.9h4611.9l95.8,64.8c171.9,115.5,197.2,202.9,188.8,673.3c-8.4,450.8-22.5,493-202.9,625.4c-76,59.2-78.9,59.2-4645.7,64.8C2528.5-2633.2,443.7-2641.6,398.6-2655.7z"/></g></g>
</svg>